<?xml version="1.0" encoding="utf-8"?>
<!-- Generator: Adobe Illustrator 16.0.0, SVG Export Plug-In . SVG Version: 6.00 Build 0)  -->
<!DOCTYPE svg PUBLIC "-//W3C//DTD SVG 1.1//EN" "http://www.w3.org/Graphics/SVG/1.1/DTD/svg11.dtd">
<svg version="1.1" id="Layer_1" xmlns="http://www.w3.org/2000/svg" xmlns:xlink="http://www.w3.org/1999/xlink" x="0px" y="0px"
	 width="3000px" height="3000px" viewBox="0 0 3000 3000" enable-background="new 0 0 3000 3000" xml:space="preserve">
<g>
	<path fill="#800080" d="M398.87,1554.285c-9.391,46.115-27.815,81.58-55.27,106.418c-27.442,24.866-57.805,37.298-91.09,37.298
		c-39.634,0-74.197-16.708-103.683-50.102c-29.473-33.364-44.204-78.473-44.204-135.294c0-55.044,16.324-99.751,48.972-134.153
		c32.662-34.415,71.844-51.601,117.603-51.601c34.296,0,62.495,9.11,84.609,27.334c22.102,18.224,33.153,37.124,33.153,56.756
		c0,9.67-3.096,17.531-9.325,23.51c-6.242,5.978-14.942,8.952-26.125,8.952c-14.984,0-26.287-4.835-33.911-14.505
		c-4.316-5.366-7.186-15.567-8.581-30.575c-1.406-15.036-6.533-26.512-15.433-34.401c-8.912-7.651-21.226-11.478-36.978-11.478
		c-25.397,0-45.851,9.432-61.365,28.293c-20.588,24.972-30.868,57.965-30.868,99.006c0,41.788,10.214,78.658,30.668,110.643
		c20.455,31.986,48.096,47.951,82.896,47.951c24.892,0,47.271-8.501,67.088-25.582c13.975-11.715,27.562-32.993,40.778-63.835
		L398.87,1554.285z M550.581,1326.852v78.724c29.22-52.466,59.212-78.724,89.935-78.724c13.986,0,25.556,4.262,34.693,12.803
		c9.152,8.54,13.708,18.424,13.708,29.632c0,9.937-3.295,18.346-9.896,25.212c-6.615,6.881-14.491,10.333-23.628,10.333
		c-8.9,0-18.875-4.408-29.913-13.203c-11.063-8.791-19.259-13.176-24.599-13.176c-4.569,0-9.524,2.536-14.864,7.637
		c-11.434,10.454-23.255,27.668-35.45,51.604v167.81c0,19.34,2.405,34.002,7.226,43.938c3.335,6.906,9.152,12.617,17.561,17.214
		c8.381,4.568,20.442,6.854,36.194,6.854v13.787H432.791v-13.787c17.772,0,30.99-2.789,39.623-8.395
		c6.336-4.091,10.8-10.572,13.336-19.472c1.275-4.331,1.94-16.71,1.94-37.085v-135.72c0-40.749-0.851-65.03-2.445-72.788
		c-1.634-7.784-4.702-13.441-9.151-17.016c-4.436-3.571-9.961-5.352-16.577-5.352c-7.89,0-16.776,1.912-26.671,5.739l-3.812-13.761
		l105.582-42.823h16.018L550.581,1326.852z M906.948,1636.82c-35.823,27.788-58.31,43.859-67.448,48.164
		c-13.734,6.375-28.346,9.563-43.833,9.563c-24.147,0-44.03-8.287-59.665-24.838c-15.607-16.577-23.443-38.36-23.443-65.375
		c0-17.081,3.812-31.88,11.436-44.338c10.426-17.32,28.532-33.63,54.325-48.931c25.794-15.276,68.671-33.872,128.627-55.814v-13.761
		c0-34.905-5.525-58.839-16.576-71.83c-11.051-13.005-27.123-19.5-48.215-19.5c-15.992,0-28.717,4.304-38.12,12.979
		c-9.644,8.658-14.465,18.607-14.465,29.819l0.771,22.18c0,11.716-3.029,20.774-8.952,27.15c-5.965,6.35-13.775,9.536-23.445,9.536
		c-9.403,0-17.082-3.32-23.058-9.936c-5.962-6.614-8.938-15.673-8.938-27.148c0-21.916,11.17-42.053,33.524-60.396
		c22.367-18.343,53.74-27.521,94.131-27.521c31.002,0,56.411,5.22,76.242,15.675c14.968,7.901,26.047,20.242,33.153,37.07
		c4.57,10.971,6.867,33.393,6.867,67.29v118.85c0,33.366,0.65,53.819,1.94,61.364c1.274,7.491,3.374,12.538,6.296,15.089
		c2.949,2.55,6.281,3.799,10.095,3.799c4.077,0,7.637-0.876,10.692-2.682c5.326-3.295,15.606-12.592,30.868-27.894v21.41
		c-28.452,38.229-55.64,57.328-81.554,57.328c-12.459,0-22.367-4.304-29.727-12.964c-7.411-8.661-11.237-23.43-11.488-44.339
		H906.948z M906.948,1611.985v-133.411c-38.359,15.302-63.146,26.142-74.316,32.491c-20.082,11.21-34.44,22.924-43.075,35.17
		c-8.461,11.661-12.99,25.742-12.95,40.14c0,18.33,5.474,33.578,16.379,45.664c10.943,12.115,23.509,18.171,37.734,18.171
		C850.018,1650.21,875.441,1637.459,906.948,1611.985L906.948,1611.985z M1144.013,1143.767c10.678,0,19.763,3.758,27.254,11.275
		c7.52,7.518,11.265,16.629,11.265,27.335s-3.72,19.871-11.265,27.521c-7.491,7.651-16.576,11.477-27.254,11.477
		c-10.654,0-19.817-3.825-27.417-11.477c-7.65-7.65-11.448-16.815-11.448-27.521s3.717-19.817,11.236-27.335
		C1123.876,1147.524,1133.067,1143.767,1144.013,1143.767z M1175.677,1326.852v281.306c0,21.916,1.569,36.501,4.729,43.78
		c3.187,7.253,7.89,12.671,14.104,16.23c6.244,3.586,17.614,5.366,34.137,5.366v13.761h-169.603v-13.761
		c17.013,0,28.438-1.673,34.282-4.967c5.843-3.32,10.492-8.82,13.919-16.445c3.455-7.622,5.154-22.286,5.154-43.965v-134.921
		c0-37.962-1.142-62.561-3.426-73.771c-1.78-8.155-4.57-13.813-8.37-17.002c-3.825-3.187-9.031-4.781-15.619-4.781
		c-7.12,0-15.766,1.912-25.927,5.739l-5.34-13.761l105.196-42.823h16.762V1326.852z M1365.085,1559.625
		c-21.359-10.44-37.723-25.025-49.173-43.753c-11.448-18.754-17.133-39.449-17.133-62.134c0-34.642,13.017-64.461,39.049-89.444
		c26.06-24.972,59.4-37.457,100.044-37.457c33.311,0,62.134,8.155,86.546,24.467h73.958c10.916,0,17.266,0.317,19.047,0.956
		c1.647,0.53,3.001,1.7,3.799,3.241c1.513,2.298,2.285,6.375,2.285,12.231c0,6.63-0.665,11.225-1.939,13.775
		c-0.984,1.434-2.365,2.495-4.011,3.055c-1.94,0.77-8.316,1.142-19.235,1.142h-45.371c14.237,18.356,21.357,41.813,21.357,70.345
		c0,32.621-12.46,60.514-37.35,83.679c-24.918,23.218-58.336,34.8-100.256,34.8c-17.293,0-34.933-2.523-52.97-7.625
		c-11.185,9.67-18.755,18.146-22.687,25.423c-3.932,7.251-5.923,13.441-5.923,18.543c0,4.303,2.097,8.499,6.293,12.591
		c4.199,4.091,12.381,7.014,24.601,8.82c7.092,1.009,24.892,1.885,53.341,2.658c52.359,1.272,86.283,3.053,101.796,5.363
		c23.617,3.294,42.505,12.114,56.584,26.354c14.104,14.291,21.173,31.851,21.173,52.758c0,28.797-13.47,55.786-40.404,81.023
		c-39.637,37.189-91.333,55.812-155.141,55.812c-49.039,0-90.454-11.077-124.243-33.259c-19.047-12.725-28.583-25.98-28.583-39.743
		c0-6.134,1.407-12.243,4.17-18.354c4.331-9.405,13.229-22.526,26.698-39.368c1.78-2.285,14.743-16.047,38.864-41.283
		c-13.202-7.863-22.527-14.957-28-21.198c-5.312-5.792-8.233-13.362-8.207-21.198c0-8.954,3.611-19.395,10.865-31.348
		c7.226-12.033,23.908-28.955,50.101-50.871H1365.085z M1431.415,1345.193c-18.805,0-34.56,7.531-47.285,22.567
		c-12.697,15.036-19.045,38.08-19.045,69.161c0,40.271,8.659,71.484,25.926,93.667c13.204,16.79,29.966,25.211,50.314,25.211
		c19.287,0,35.173-7.252,47.605-21.811c12.485-14.503,18.701-37.296,18.701-68.378c0-40.511-8.766-72.242-26.298-95.182
		c-12.964-16.83-29.622-25.223-49.917-25.223V1345.193z M1361.258,1687.295c-11.953,12.991-20.933,25.077-27.043,36.287
		c-6.108,11.238-9.163,21.544-9.163,30.949c0,12.246,7.357,22.924,22.128,32.115c25.396,15.808,62.109,23.723,110.137,23.723
		c45.745,0,79.457-8.103,101.211-24.279c21.73-16.206,32.57-33.444,32.57-51.802c0-13.229-6.483-22.687-19.446-28.264
		c-13.176-5.607-39.369-8.929-78.498-9.937C1435.985,1694.547,1392.021,1691.6,1361.258,1687.295L1361.258,1687.295z
		 M1887.613,1326.852v119.235h-12.564c-9.642-37.457-22.049-62.934-37.163-76.427c-15.116-13.521-34.374-20.271-57.754-20.271
		c-17.771,0-32.144,4.716-43.061,14.146c-10.918,9.431-16.39,19.885-16.39,31.333c0,14.266,4.063,26.486,12.219,36.688
		c7.864,10.466,23.856,21.543,48.029,33.259l55.627,27.148c51.589,25.237,77.357,58.47,77.357,99.751
		c0,31.852-11.981,57.514-36.023,77.013c-24.013,19.497-50.845,29.247-80.598,29.247c-21.357,0-45.744-3.826-73.185-11.476
		c-8.369-2.524-15.247-3.8-20.587-3.8c-5.846,0-10.415,3.294-13.709,9.936h-12.564v-125.014h12.564
		c7.094,35.676,20.694,62.559,40.803,80.649c20.058,18.092,42.559,27.151,67.448,27.151c17.534,0,31.826-5.181,42.851-15.516
		c11.049-10.307,16.574-22.738,16.574-37.244c0-17.586-6.161-32.356-18.461-44.335c-12.301-11.981-36.899-27.151-73.744-45.479
		c-36.845-18.357-60.992-34.907-72.442-49.704c-11.422-14.531-17.134-32.86-17.134-55.042c0-28.796,9.854-52.876,29.54-72.23
		c19.685-19.363,45.186-29.048,76.427-29.048c13.707,0,30.338,2.935,49.941,8.793c12.938,3.813,21.571,5.726,25.901,5.726
		c4.063,0,7.252-0.89,9.537-2.669c2.284-1.781,4.966-5.739,8.021-11.85h12.565L1887.613,1326.852z M2085.416,1143.767v464.391
		c0,21.916,1.595,36.447,4.781,43.568c3.188,7.117,8.076,12.565,14.691,16.257s18.913,5.525,36.95,5.525v13.787H1970.71v-13.787
		c16.017,0,26.935-1.646,32.779-4.94c5.845-3.32,10.414-8.82,13.734-16.445c3.321-7.622,4.967-22.286,4.967-43.965v-318.005
		c0-39.49-0.901-63.757-2.655-72.816c-1.779-9.031-4.621-15.222-8.581-18.541c-3.931-3.308-8.951-4.968-15.062-4.968
		c-6.589,0-14.956,2.045-25.131,6.123l-6.481-13.377l104.055-42.82h17.135L2085.416,1143.767z M2270.68,1143.767
		c10.678,0,19.764,3.758,27.254,11.275c7.492,7.518,11.238,16.629,11.238,27.335s-3.746,19.871-11.238,27.521
		c-7.49,7.651-16.576,11.477-27.254,11.477c-10.68,0-19.819-3.825-27.47-11.477c-7.597-7.65-11.423-16.815-11.423-27.521
		s3.721-19.817,11.236-27.335C2250.543,1147.524,2259.76,1143.767,2270.68,1143.767z M2302.29,1326.852v281.306
		c0,21.916,1.595,36.501,4.784,43.78c3.186,7.253,7.861,12.671,14.104,16.23c6.244,3.586,17.586,5.366,34.111,5.366v13.761h-169.592
		v-13.761c17.028,0,28.452-1.673,34.297-4.967c5.844-3.32,10.464-8.82,13.919-16.445c3.454-7.622,5.126-22.286,5.126-43.965
		v-134.921c0-37.962-1.142-62.561-3.451-73.771c-1.781-8.155-4.57-13.813-8.369-17.002c-3.799-3.187-9.032-4.781-15.62-4.781
		c-7.119,0-15.726,1.912-25.901,5.739l-5.34-13.761l105.197-42.823h16.735V1326.852z M2623.99,1326.852v119.235h-12.564
		c-9.642-37.457-22.05-62.934-37.164-76.427c-15.115-13.521-34.374-20.271-57.754-20.271c-17.771,0-32.143,4.716-43.061,14.146
		c-10.944,9.431-16.389,19.885-16.389,31.333c0,14.266,4.091,26.486,12.192,36.688c7.891,10.466,23.908,21.543,48.057,33.259
		l55.625,27.148c51.591,25.237,77.358,58.47,77.358,99.751c0,31.852-12.008,57.514-36.023,77.013
		c-23.987,19.497-50.871,29.247-80.598,29.247c-21.358,0-45.744-3.826-73.185-11.476c-8.369-2.524-15.248-3.8-20.588-3.8
		c-5.845,0-10.414,3.294-13.735,9.936h-12.565v-125.014h12.565c7.121,35.676,20.747,62.559,40.805,80.649
		c20.082,18.092,42.558,27.151,67.447,27.151c17.532,0,31.826-5.181,42.877-15.516c11.05-10.307,16.575-22.738,16.575-37.244
		c0-17.586-6.163-32.356-18.489-44.335c-12.3-11.981-36.898-27.151-73.743-45.479c-36.817-18.357-60.966-34.907-72.416-49.704
		c-11.45-14.531-17.161-32.86-17.161-55.042c0-28.796,9.855-52.876,29.542-72.23c19.711-19.363,45.159-29.048,76.427-29.048
		c13.733,0,30.363,2.935,49.915,8.793c12.963,3.813,21.624,5.726,25.926,5.726c4.091,0,7.254-0.89,9.538-2.669
		c2.312-1.781,4.967-5.739,8.021-11.85h12.564V1326.852z M2803.146,1222.117v115.055h81.552v26.764h-81.552v227.035
		c0,22.687,3.24,37.961,9.722,45.85c6.481,7.891,14.797,11.85,24.943,11.85c8.37,0,16.523-2.604,24.388-7.836
		c7.864-5.207,13.972-12.911,18.302-23.112h14.877c-8.926,24.97-21.518,43.779-37.748,56.37
		c-16.258,12.618-33.021,18.914-50.313,18.914c-11.689,0-23.14-3.212-34.297-9.722c-11.157-6.481-19.446-15.78-24.784-27.894
		c-5.34-12.112-7.995-30.788-7.995-55.997v-235.458h-55.256v-12.617c13.973-5.608,28.238-15.104,42.849-28.48
		c14.611-13.374,27.628-29.246,39.076-47.576c5.845-9.683,13.975-27.402,24.387-53.131h11.85V1222.117z"/>
</g>
</svg>
